<svg width="97" height="93" viewBox="0 0 97 93" fill="none" xmlns="http://www.w3.org/2000/svg">
<path d="M2.94388 52.5734C-3.25818 62.1028 8.30112 66.1446 14.856 66.9743C15.8015 67.6854 15.6124 69.4632 15.6124 69.4632L17.1251 84.3974C18.0076 87.5382 21.3605 93.18 27.7138 90.62C35.6555 87.4197 33.9536 72.6634 33.7645 69.8188C33.6145 67.5616 35.3673 66.9438 36.8719 66.4134L36.9088 66.4005L43.0297 64.8003C47.3786 63.9114 50.7821 58.6182 50.7821 53.6402C50.7821 49.6577 45.6137 47.2398 43.0297 46.5286C32.2519 44.573 9.14578 43.044 2.94388 52.5734Z" fill="#FE76B8"/>
<path d="M2.94388 52.5734C-3.25818 62.1028 8.30112 66.1446 14.856 66.9743C15.8015 67.6854 15.6124 69.4632 15.6124 69.4632L17.1251 84.3974C18.0076 87.5382 21.3605 93.18 27.7138 90.62C35.6555 87.4197 33.9536 72.6634 33.7645 69.8188C33.6145 67.5616 35.3673 66.9438 36.8719 66.4134L36.9088 66.4005L43.0297 64.8003C47.3786 63.9114 50.7821 58.6182 50.7821 53.6402C50.7821 49.6577 45.6137 47.2398 43.0297 46.5286C32.2519 44.573 9.14578 43.044 2.94388 52.5734Z" fill="#FF6B81"/>
<path d="M3.38454 41.6685C8.69538 51.6104 18.9116 45.5511 18.9116 40.5324L19.2902 35.0411C20.199 32.163 21.8149 33.5895 22.5091 34.6624L23.8346 38.2602C24.7814 41.921 28.9851 48.8639 38.2254 47.349C47.4658 45.8343 47.5037 39.7751 46.3675 36.9347C45.7364 35.42 42.997 32.466 37.0893 32.769C31.1815 33.072 29.1996 31.8854 28.947 31.2541C47.8824 27.4671 48.1979 14.7805 45.9888 8.91067C42.9829 2.37864 32.8099 -2.82924 14.9351 1.71522C-2.93979 6.25972 -1.9084 29.8349 3.38454 41.6685Z" fill="#00A3FE"/>
<path d="M3.38454 41.6685C8.69538 51.6104 18.9116 45.5511 18.9116 40.5324L19.2902 35.0411C20.199 32.163 21.8149 33.5895 22.5091 34.6624L23.8346 38.2602C24.7814 41.921 28.9851 48.8639 38.2254 47.349C47.4658 45.8343 47.5037 39.7751 46.3675 36.9347C45.7364 35.42 42.997 32.466 37.0893 32.769C31.1815 33.072 29.1996 31.8854 28.947 31.2541C47.8824 27.4671 48.1979 14.7805 45.9888 8.91067C42.9829 2.37864 32.8099 -2.82924 14.9351 1.71522C-2.93979 6.25972 -1.9084 29.8349 3.38454 41.6685Z" fill="#1CB0F6"/>
<path d="M57.0653 92.0171H85.2742C92.5615 92.0171 94.5793 87.1174 94.6773 84.6677V65.4121C94.6773 56.8305 85.1273 44.0693 70.4353 45.1277C55.7431 46.186 48.1033 57.7124 48.1033 65.4121C48.201 67.3721 48.3382 73.4083 48.1033 81.8749C47.8682 90.3414 53.9799 92.1641 57.0653 92.0171Z" fill="#FECE00"/>
<path d="M57.0653 92.0171H85.2742C92.5615 92.0171 94.5793 87.1174 94.6773 84.6677V65.4121C94.6773 56.8305 85.1273 44.0693 70.4353 45.1277C55.7431 46.186 48.1033 57.7124 48.1033 65.4121C48.201 67.3721 48.3382 73.4083 48.1033 81.8749C47.8682 90.3414 53.9799 92.1641 57.0653 92.0171Z" fill="#FF8A3D"/>
<path d="M45.6212 15.0479C44.2578 29.4387 51.1125 39.4744 54.71 42.6934C63.1932 49.6616 77.9373 47.2378 84.2492 45.1549C88.8567 42.9458 97.8445 34.1725 96.9358 16.7521C96.0268 -0.668272 84.4384 -0.983865 78.7578 1.03588C75.2704 2.36135 69.2518 8.0797 73.0772 20.3498C76.9028 32.6199 73.7876 36.1923 71.7518 36.4447C69.2903 37.076 65.3517 34.7406 69.2903 20.3498C73.2288 5.95902 65.6296 0.972773 61.3374 0.278483C56.6668 -0.794507 46.9845 0.657183 45.6212 15.0479Z" fill="#FE9900"/>
<path d="M45.6212 15.0479C44.2578 29.4387 51.1125 39.4744 54.71 42.6934C63.1932 49.6616 77.9373 47.2378 84.2492 45.1549C88.8567 42.9458 97.8445 34.1725 96.9358 16.7521C96.0268 -0.668272 84.4384 -0.983865 78.7578 1.03588C75.2704 2.36135 69.2518 8.0797 73.0772 20.3498C76.9028 32.6199 73.7876 36.1923 71.7518 36.4447C69.2903 37.076 65.3517 34.7406 69.2903 20.3498C73.2288 5.95902 65.6296 0.972773 61.3374 0.278483C56.6668 -0.794507 46.9845 0.657183 45.6212 15.0479Z" fill="#7C4DFF"/>
<path d="M61.1603 72.3331C65.0297 72.3331 68.1664 69.1964 68.1664 65.3271C68.1664 61.4578 65.0297 58.3211 61.1603 58.3211C57.291 58.3211 54.1543 61.4578 54.1543 65.3271C54.1543 69.1964 57.291 72.3331 61.1603 72.3331Z" fill="white"/>
<path d="M58.8883 68.1669C61.2936 68.1669 63.2434 66.2171 63.2434 63.8118C63.2434 61.4065 61.2936 59.4567 58.8883 59.4567C56.483 59.4567 54.5332 61.4065 54.5332 63.8118C54.5332 66.2171 56.483 68.1669 58.8883 68.1669Z" fill="black"/>
<path d="M61.1603 72.3331C65.0297 72.3331 68.1664 69.1964 68.1664 65.3271C68.1664 61.4578 65.0297 58.3211 61.1603 58.3211C57.291 58.3211 54.1543 61.4578 54.1543 65.3271C54.1543 69.1964 57.291 72.3331 61.1603 72.3331Z" fill="white"/>
<path d="M58.8883 68.1669C61.2936 68.1669 63.2434 66.2171 63.2434 63.8118C63.2434 61.4065 61.2936 59.4567 58.8883 59.4567C56.483 59.4567 54.5332 61.4065 54.5332 63.8118C54.5332 66.2171 56.483 68.1669 58.8883 68.1669Z" fill="black"/>
<path d="M78.2013 72.3331C82.0707 72.3331 85.2074 69.1964 85.2074 65.3271C85.2074 61.4578 82.0707 58.3211 78.2013 58.3211C74.332 58.3211 71.1953 61.4578 71.1953 65.3271C71.1953 69.1964 74.332 72.3331 78.2013 72.3331Z" fill="white"/>
<path d="M75.9303 68.1669C78.3356 68.1669 80.2854 66.2171 80.2854 63.8118C80.2854 61.4065 78.3356 59.4567 75.9303 59.4567C73.525 59.4567 71.5752 61.4065 71.5752 63.8118C71.5752 66.2171 73.525 68.1669 75.9303 68.1669Z" fill="black"/>
<path d="M78.2013 72.3331C82.0707 72.3331 85.2074 69.1964 85.2074 65.3271C85.2074 61.4578 82.0707 58.3211 78.2013 58.3211C74.332 58.3211 71.1953 61.4578 71.1953 65.3271C71.1953 69.1964 74.332 72.3331 78.2013 72.3331Z" fill="white"/>
<path d="M75.9303 68.1669C78.3356 68.1669 80.2854 66.2171 80.2854 63.8118C80.2854 61.4065 78.3356 59.4567 75.9303 59.4567C73.525 59.4567 71.5752 61.4065 71.5752 63.8118C71.5752 66.2171 73.525 68.1669 75.9303 68.1669Z" fill="black"/>
<path d="M25.1822 23.09C25.9224 23.656 26.8704 23.8586 27.808 23.8586H33.1253C33.5468 23.8586 33.9782 23.8165 34.3007 23.5497C36.4713 21.7535 40.6685 12.9632 31.1136 10.7075C30.1172 10.5156 29.1249 10.5983 28.1892 10.8906C29.9997 11.074 31.9493 16.4611 28.1892 17.557C25.181 18.4336 23.6863 16.4537 23.3148 15.354C22.1668 17.9094 22.4021 20.9638 25.1822 23.09Z" fill="white"/>
<path d="M23.3154 15.3542C23.6869 16.4539 25.1816 18.4338 28.1898 17.5572C31.9499 16.4613 30.0002 11.0742 28.1898 10.8908C26.0708 11.5531 24.2424 13.2911 23.3154 15.3542Z" fill="black"/>
<path d="M23.063 16.4856C23.0257 15.1687 22.8736 13.7629 21.9637 12.7962C20.0931 10.8088 17.91 10.6608 16.5587 10.968C16.1408 11.0629 15.8036 11.3459 15.5166 11.6594C16.7236 13.2289 18.4133 16.6421 15.5166 17.738C12.6199 18.8339 11.153 16.9795 10.7817 15.9152C10.4304 16.2035 10.2246 16.6292 10.2246 17.0792V17.9105C10.2246 19.352 11.1883 20.6218 12.5933 21.0314L21.3319 23.5784C21.437 23.609 21.551 23.5759 21.6225 23.4939L22.5354 22.4461C22.9592 21.9598 23.2893 21.3955 23.2962 20.7549C23.308 19.648 23.105 17.9718 23.063 16.4856Z" fill="white"/>
<path d="M10.7822 15.9148C11.1535 16.9792 12.6205 18.8336 15.5171 17.7377C18.4138 16.6417 16.7241 13.2285 15.5171 11.659C14.4323 12.8433 12.2199 14.735 10.7822 15.9148Z" fill="black"/>
<path d="M25.1822 23.09C25.9224 23.656 26.8704 23.8586 27.808 23.8586H33.1253C33.5468 23.8586 33.9782 23.8165 34.3007 23.5497C36.4713 21.7535 40.6685 12.9632 31.1136 10.7075C30.1172 10.5156 29.1249 10.5983 28.1892 10.8906C29.9997 11.074 31.9493 16.4611 28.1892 17.557C25.181 18.4336 23.6863 16.4537 23.3148 15.354C22.1668 17.9094 22.4021 20.9638 25.1822 23.09Z" fill="white"/>
<path d="M23.3154 15.3542C23.6869 16.4539 25.1816 18.4338 28.1898 17.5572C31.9499 16.4613 30.0002 11.0742 28.1898 10.8908C26.0708 11.5531 24.2424 13.2911 23.3154 15.3542Z" fill="black"/>
<path d="M23.063 16.4856C23.0257 15.1687 22.8736 13.7629 21.9637 12.7962C20.0931 10.8088 17.91 10.6608 16.5587 10.968C16.1408 11.0629 15.8036 11.3459 15.5166 11.6594C16.7236 13.2289 18.4133 16.6421 15.5166 17.738C12.6199 18.8339 11.153 16.9795 10.7817 15.9152C10.4304 16.2035 10.2246 16.6292 10.2246 17.0792V17.9105C10.2246 19.352 11.1883 20.6218 12.5933 21.0314L21.3319 23.5784C21.437 23.609 21.551 23.5759 21.6225 23.4939L22.5354 22.4461C22.9592 21.9598 23.2893 21.3955 23.2962 20.7549C23.308 19.648 23.105 17.9718 23.063 16.4856Z" fill="white"/>
<path d="M10.7822 15.9148C11.1535 16.9792 12.6205 18.8336 15.5171 17.7377C18.4138 16.6417 16.7241 13.2285 15.5171 11.659C14.4323 12.8433 12.2199 14.735 10.7822 15.9148Z" fill="black"/>
<path d="M45.2561 20.4504C44.9531 34.8412 53.2709 42.3522 57.7523 44.6875C57.7523 43.5514 57.9882 40.9478 54.3526 37.1608C50.717 33.3737 48.8538 26.2573 48.475 23.4801C47.6545 16.2216 45.5591 6.05964 45.2561 20.4504Z" fill="#FE7100"/>
<path d="M45.2561 20.4504C44.9531 34.8412 53.2709 42.3522 57.7523 44.6875C57.7523 43.5514 57.9882 40.9478 54.3526 37.1608C50.717 33.3737 48.8538 26.2573 48.475 23.4801C47.6545 16.2216 45.5591 6.05964 45.2561 20.4504Z" fill="#6C38FF"/>
<path d="M47.722 28.7822L69.3039 39.1741L61.4119 42.7988V53.4032C59.533 54.7353 54.1643 57.4319 47.722 57.5599C41.2797 57.6877 36.1258 54.5223 34.3543 52.9235V42.6083L29.3614 40.1888L27.2676 39.1741L47.722 28.7822Z" fill="black"/>
<path d="M34.3543 42.6083L47.722 49.0865L61.4119 42.7988M34.3543 42.6083V52.9235C36.1258 54.5223 41.2797 57.6877 47.722 57.5599C54.1643 57.4319 59.533 54.7353 61.4119 53.4032V42.7988M34.3543 42.6083L29.3614 40.1888M61.4119 42.7988L69.3039 39.1741L47.722 28.7822L27.2676 39.1741L29.3614 40.1888M29.3614 40.1888V49.0865" stroke="white" stroke-linecap="round"/>
</svg>
