<svg width="118" height="116" viewBox="0 0 118 116" fill="none" xmlns="http://www.w3.org/2000/svg">
<path d="M105.17 9.29175C89.5966 -9.61862 67.8589 4.65686 58.9367 14.1584C40.8606 -5.86432 18.0222 -0.347617 10.9656 7.20601C-8.77911 28.3411 3.66559 49.847 12.356 57.9581C-9.33529 76.5904 2.39099 99.0928 10.9656 108.015C32.3284 125.142 52.7955 109.058 57.5462 100.367C77.2909 123.449 101.23 112.302 110.732 103.844C125.837 85.1662 112.586 65.2581 105.17 57.9581C125.471 34.5982 111.585 15.6428 105.17 9.29175Z" fill="#02883F"/>
<path d="M62.2235 42.4093C65.2136 47.1311 72.5978 53.7415 78.2139 42.4093" stroke="black" stroke-width="6" stroke-linecap="round"/>
<path d="M41.0188 42.4093C44.0089 47.1311 51.3931 53.7415 57.0092 42.4093" stroke="black" stroke-width="6" stroke-linecap="round"/>
<path d="M25.0284 42.4093C37.7688 57.6239 69.2318 78.9243 93.1614 42.4093" stroke="black" stroke-width="6" stroke-linecap="round"/>
</svg>
