<svg width="596" height="62" viewBox="0 0 596 62" fill="none" xmlns="http://www.w3.org/2000/svg">
<path d="M569.794 27.427C566 25.65 567.638 17.0611 568.932 12.9889C570.12 6.23627 564.684 4.40003 561.817 4.32598C549.917 2.54899 545.935 10.3974 545.432 14.5437C545.217 20.319 544.915 34.5794 545.432 45.419C546.079 58.9687 556.212 58.9687 559.23 58.9687C562.248 58.9687 568.069 56.7474 567.207 48.7509C566.517 42.3537 569.075 40.7544 570.441 40.7544C571.375 40.7544 573.243 42.1316 573.243 47.6403C573.243 54.5262 574.752 58.5244 582.298 58.9687C589.844 59.4129 594.371 52.7492 594.371 49.4173C594.371 46.0854 598.036 23.6508 594.371 12.9889C590.706 2.32688 579.495 5.2145 575.615 5.43662C571.734 5.65875 571.087 11.434 571.734 12.9889C572.381 14.5437 574.537 29.6482 569.794 27.427Z" fill="#FE76B8"/>
<path d="M284.851 15.0268C277.476 26.3546 291.221 31.1591 299.015 32.1454C300.14 32.9907 299.915 35.1041 299.915 35.1041L301.713 52.8567C302.763 56.5904 306.75 63.297 314.304 60.2537C323.747 56.4495 321.724 38.9083 321.499 35.5268C321.32 32.8436 323.405 32.1092 325.194 31.4787L325.238 31.4632L332.516 29.5612C337.687 28.5045 341.734 22.2123 341.734 16.2948C341.734 11.5608 335.588 8.68655 332.516 7.84119C319.7 5.51644 292.226 3.69891 284.851 15.0268Z" fill="#FE76B8"/>
<path d="M235.506 33.1394C232.969 37.5727 237.863 39.4841 240.627 39.8857H244.528C248.43 40.6567 247.455 43.4997 246.723 45.1863L243.553 47.1138C241.521 47.3547 236.822 47.5475 234.286 46.391C231.116 44.9454 229.165 42.536 228.678 36.9944C228.287 32.5612 231.279 28.7222 232.823 27.3569C236.335 21.9599 245.829 23.02 250.137 24.2247C259.696 25.574 263.224 22.6988 263.793 21.0925C267.89 13.5753 259.485 7.19849 254.77 4.94974C242.659 0.69318 216.046 -2.13382 206.487 20.6107C196.927 43.3552 211.933 55.7876 220.63 59.1607C230.791 61.8913 253.454 63.6903 262.818 49.0413C272.182 34.3923 261.355 29.1238 254.77 28.3207H245.992C243.553 28.0798 238.042 28.7062 235.506 33.1394Z" fill="#00A3FE"/>
<path d="M4.25512 51.6804C10.9318 64.0109 23.7757 56.4958 23.7757 50.2713L24.2518 43.4607C25.3944 39.891 27.4258 41.6601 28.2987 42.991L29.9651 47.4531C31.1554 51.9935 36.4402 60.6046 48.0573 58.7258C59.6744 56.847 59.722 49.3319 58.2937 45.8091C57.5002 43.9304 54.0563 40.2667 46.629 40.6425C39.2016 41.0182 36.71 39.5465 36.3926 38.7637C60.1981 34.0667 60.5949 18.3319 57.8176 11.0516C54.0386 2.95017 41.2489 -3.50903 18.7765 2.12734C-3.69593 7.76371 -2.39927 37.0033 4.25512 51.6804Z" fill="#00A3FE"/>
<circle cx="20.4653" cy="18.4312" r="8.26056" fill="white"/>
<circle cx="17.7862" cy="16.6451" r="5.13494" fill="black"/>
<circle cx="40.5585" cy="18.4312" r="8.26056" fill="white"/>
<circle cx="37.8797" cy="16.6451" r="5.13494" fill="black"/>
<path d="M53.3273 19.7782C51.7197 36.7473 59.8023 48.581 64.0446 52.3768C74.0474 60.5934 91.4334 57.7354 98.8761 55.2794C104.309 52.6745 114.907 42.3293 113.836 21.7877C112.764 1.2461 99.0993 0.873974 92.401 3.25561C88.2887 4.81855 81.1918 11.5615 85.7026 26.03C90.2135 40.4984 86.5402 44.7109 84.1397 45.0086C81.2371 45.7529 76.5929 42.9991 81.2371 26.03C85.8813 9.06083 76.9204 3.18118 71.8594 2.3625C66.3519 1.09726 54.9349 2.80905 53.3273 19.7782Z" fill="#FE9900"/>
<path d="M52.8968 26.1482C52.5396 43.1173 62.3477 51.974 67.632 54.7278C67.632 53.3881 67.9101 50.3181 63.6232 45.8525C59.3362 41.3869 57.1391 32.9954 56.6926 29.7207C55.725 21.1617 53.2541 9.17904 52.8968 26.1482Z" fill="#FE7100"/>
<path d="M488.631 21.8124C487.023 38.7815 495.106 50.6152 499.348 54.411C509.351 62.6276 526.737 59.7696 534.18 57.3136C539.613 54.7087 550.211 44.3634 549.139 23.8219C548.068 3.28028 534.403 2.90815 527.705 5.28979C523.592 6.85273 516.495 13.5957 521.006 28.0641C525.517 42.5326 521.844 46.7451 519.443 47.0428C516.541 47.787 511.896 45.0333 516.541 28.0641C521.185 11.095 512.224 5.21536 507.163 4.39668C501.655 3.13144 490.238 4.84323 488.631 21.8124Z" fill="#FE9900"/>
<path d="M488.2 28.1825C487.843 45.1516 497.651 54.0083 502.936 56.7621C502.936 55.4224 503.214 52.3524 498.927 47.8868C494.64 43.4212 492.443 35.0297 491.996 31.755C491.029 23.196 488.558 11.2133 488.2 28.1825Z" fill="#FE7100"/>
<path d="M332.003 23.8464C330.395 40.8155 338.478 52.6493 342.72 56.445C352.723 64.6616 370.109 61.8037 377.552 59.3476C382.985 56.7427 393.583 46.3975 392.511 25.8559C391.439 5.31434 377.775 4.94221 371.077 7.32384C366.964 8.88679 359.867 15.6298 364.378 30.0982C368.889 44.5666 365.216 48.7791 362.815 49.0768C359.913 49.8211 355.268 47.0673 359.913 30.0982C364.557 13.1291 355.596 7.24942 350.535 6.43074C345.027 5.16549 333.61 6.87729 332.003 23.8464Z" fill="#FE9900"/>
<path d="M331.572 30.2165C331.215 47.1856 341.023 56.0423 346.308 58.7961C346.308 57.4564 346.586 54.3863 342.299 49.9208C338.012 45.4552 335.815 37.0637 335.368 33.789C334.401 25.23 331.93 13.2473 331.572 30.2165Z" fill="#FE7100"/>
<path d="M120.153 58.9754C128.108 59.3055 130.368 53.8866 130.503 51.1359C131.721 46.5972 132.329 45.5657 135.576 45.1531C138.823 44.7405 140.244 50.3107 140.244 52.1674C140.244 54.0242 145.926 61.4511 154.044 56.7061C160.538 52.9101 161.079 43.0213 160.538 38.5514C160.47 33.5314 159.077 21.4695 154.044 13.3824C149.011 5.29531 140.176 3.82367 136.388 4.09873C131.518 3.9612 120.234 5.79042 114.065 14.2076C107.896 22.6248 107.436 42.3336 107.977 51.1359C108.721 53.6115 112.198 58.6453 120.153 58.9754Z" fill="#FE76B8"/>
<path d="M134.28 31.4845C135.288 32.2664 136.579 32.5461 137.856 32.5461H145.096C145.671 32.5461 146.258 32.4881 146.697 32.1194C149.653 29.6385 155.368 17.4974 142.357 14.3819C141 14.117 139.649 14.2311 138.375 14.635C140.84 14.8882 143.495 22.3287 138.375 23.8423C134.279 25.0533 132.243 22.3184 131.737 20.7996C130.174 24.3293 130.494 28.5478 134.28 31.4845Z" fill="white"/>
<path d="M131.737 20.7996C132.243 22.3184 134.279 25.0533 138.375 23.8423C143.495 22.3287 140.84 14.8882 138.375 14.635C135.489 15.5497 132.999 17.9501 131.737 20.7996Z" fill="black"/>
<path d="M131.394 22.3624C131.343 20.5434 131.136 18.6018 129.897 17.2665C127.35 14.5216 124.377 14.3173 122.537 14.7415C121.968 14.8727 121.509 15.2634 121.118 15.6964C122.761 17.8643 125.062 22.5787 121.118 24.0923C117.173 25.606 115.176 23.0445 114.67 21.5746C114.191 21.9727 113.911 22.5607 113.911 23.1822V24.3306C113.911 26.3216 115.224 28.0754 117.137 28.641L129.036 32.1587C129.18 32.2011 129.335 32.1555 129.432 32.0422L130.675 30.5951C131.252 29.9232 131.702 29.144 131.711 28.2591C131.727 26.7303 131.451 24.4151 131.394 22.3624Z" fill="white"/>
<path d="M114.67 21.5746C115.176 23.0445 117.173 25.606 121.118 24.0923C125.062 22.5787 122.761 17.8643 121.118 15.6964C119.64 17.3323 116.628 19.945 114.67 21.5746Z" fill="black"/>
<path d="M209.124 8.69166C200.534 0.0430636 190.751 7.52298 191.467 14.3016C191.467 15.9379 192.231 18.6493 191.467 22.0153C190.704 25.3813 188.445 24.0411 187.411 22.9503L181.207 12.4316C170.518 -2.71518 161.483 6.12047 158.301 12.4316C156.79 18.0416 153.959 31.9729 154.722 42.8188C155.677 56.3761 165.221 58.9473 170.232 58.9473C175.242 58.9473 177.628 51.9349 179.537 45.6237C181.064 40.5748 184.309 43.52 185.741 45.6237C187.172 50.3766 192.183 59.6953 200.773 58.9473C209.363 58.1993 212.783 49.7533 213.419 45.6237V33.2351C214.373 17.1533 210.953 10.1721 209.124 8.69166Z" fill="#FECE00"/>
<path d="M400.915 60.7823C409.328 59.1029 411.113 49.1972 410.953 44.4543C411.336 41.6552 412.228 43.4436 412.627 44.6876L414.539 48.8862C416.61 50.9078 421.231 53.6913 423.143 48.653C425.055 43.6146 426.171 43.1326 426.489 43.5213L427.446 47.4867C428.402 59.8493 434.377 61.2489 439.874 60.7823C445.372 60.3158 453.02 53.5514 453.498 42.8216C453.976 32.0918 453.02 17.1633 448.957 9.46584C444.894 1.76836 436.289 4.10091 432.943 5.73373C430.266 7.03998 428.163 11.0986 427.446 12.9647L422.665 25.3273C418.841 31.8585 414.698 28.0486 413.105 25.3273L410.953 17.1633C410.077 13.1202 406.269 4.84733 398.047 4.10091C389.824 3.35448 385.697 15.6082 384.662 21.8284C384.502 28.0486 384.279 41.5153 384.662 45.6206C385.14 50.7523 390.398 62.8816 400.915 60.7823Z" fill="#FECE00"/>
<path d="M445.485 38.6003C445.122 52.3736 454.399 59.0963 459.083 60.7359C472.862 61.8092 480.16 59.6179 483.106 58.5L483.333 58.2764C486.506 56.9348 493.622 53.3126 495.798 43.2957C497.974 33.2788 492.927 30.1783 490.132 29.8802C488.47 29.7311 484.647 29.4777 482.653 29.6566C480.659 29.8354 481.067 28.9858 481.52 28.5386L488.092 24.2904C497.702 11.0537 485.901 5.35955 478.8 4.16706C479.329 4.09253 476.942 3.98819 463.162 4.16706C449.383 4.34594 445.636 16.3156 445.485 22.2781C445.636 21.9799 445.848 24.827 445.485 38.6003Z" fill="#00A3FE"/>
<path d="M467.419 27.6521C468.203 28.2603 469.207 28.4779 470.2 28.4779H475.832C476.278 28.4779 476.735 28.4328 477.077 28.146C479.376 26.2163 483.821 16.7733 473.701 14.3501C472.646 14.1441 471.595 14.2329 470.604 14.547C472.521 14.7439 474.586 20.5309 470.604 21.7083C467.418 22.6501 465.835 20.523 465.441 19.3417C464.225 22.087 464.475 25.3681 467.419 27.6521Z" fill="white"/>
<path d="M465.441 19.3417C465.835 20.523 467.418 22.6501 470.604 21.7083C474.586 20.5309 472.521 14.7439 470.604 14.547C468.36 15.2584 466.423 17.1254 465.441 19.3417Z" fill="black"/>
<path d="M465.174 20.5572C465.135 19.1424 464.974 17.6323 464.01 16.5937C462.029 14.4588 459.717 14.2999 458.285 14.6298C457.843 14.7319 457.486 15.0358 457.182 15.3725C458.46 17.0587 460.25 20.7254 457.182 21.9027C454.114 23.08 452.56 21.0877 452.167 19.9445C451.795 20.2541 451.577 20.7114 451.577 21.1948V22.088C451.577 23.6365 452.597 25.0006 454.086 25.4405L463.341 28.1766C463.452 28.2095 463.573 28.174 463.648 28.0859L464.615 26.9604C465.064 26.4378 465.414 25.8317 465.421 25.1435C465.434 23.9545 465.219 22.1538 465.174 20.5572Z" fill="white"/>
<path d="M452.167 19.9445C452.56 21.0877 454.114 23.08 457.182 21.9027C460.25 20.7254 458.46 17.0587 457.182 15.3725C456.033 16.6449 453.689 18.677 452.167 19.9445Z" fill="black"/>
<circle cx="354.063" cy="26.5678" r="8.26056" fill="white"/>
<circle cx="351.384" cy="24.7816" r="5.13494" fill="black"/>
<circle cx="374.156" cy="26.5678" r="8.26056" fill="white"/>
<circle cx="371.477" cy="24.7816" r="5.13494" fill="black"/>
</svg>
